<svg width="157" height="22" viewBox="0 0 157 22" fill="none" xmlns="http://www.w3.org/2000/svg">
<g clip-path="url(#clip0_2_2720)">
<path d="M79.2075 8.25H77.75V3.66667C77.75 3.1625 77.3375 2.75 76.8334 2.75H73.1667C72.6625 2.75 72.25 3.1625 72.25 3.66667V8.25H70.7925C69.9767 8.25 69.5642 9.24 70.1417 9.8175L74.3492 14.025C74.7067 14.3825 75.2842 14.3825 75.6417 14.025L79.8492 9.8175C80.4267 9.24 80.0234 8.25 79.2075 8.25ZM68.5834 17.4167C68.5834 17.9208 68.9959 18.3333 69.5 18.3333H80.5C81.0042 18.3333 81.4167 17.9208 81.4167 17.4167C81.4167 16.9125 81.0042 16.5 80.5 16.5H69.5C68.9959 16.5 68.5834 16.9125 68.5834 17.4167Z" fill="#4D4D4D"/>
</g>
<path d="M93.294 15H89.8437V4.81818H93.3636C94.3745 4.81818 95.2428 5.02202 95.9687 5.42969C96.6978 5.83404 97.258 6.41572 97.6491 7.17472C98.0402 7.93371 98.2357 8.84186 98.2357 9.89915C98.2357 10.9598 98.0385 11.8712 97.6441 12.6335C97.253 13.3958 96.6879 13.9808 95.9488 14.3885C95.213 14.7962 94.3281 15 93.294 15ZM91.6881 13.4041H93.2045C93.9138 13.4041 94.5054 13.2749 94.9793 13.0163C95.4533 12.7545 95.8096 12.3651 96.0482 11.848C96.2869 11.3277 96.4062 10.678 96.4062 9.89915C96.4062 9.12026 96.2869 8.47396 96.0482 7.96023C95.8096 7.44318 95.4566 7.05706 94.9893 6.80185C94.5253 6.54332 93.9486 6.41406 93.2592 6.41406H91.6881V13.4041ZM103.24 15.1491C102.494 15.1491 101.848 14.9851 101.301 14.657C100.754 14.3288 100.33 13.8698 100.028 13.2798C99.7297 12.6899 99.5805 12.0005 99.5805 11.2116C99.5805 10.4228 99.7297 9.73177 100.028 9.13849C100.33 8.54522 100.754 8.08452 101.301 7.75639C101.848 7.42827 102.494 7.2642 103.24 7.2642C103.985 7.2642 104.632 7.42827 105.179 7.75639C105.725 8.08452 106.148 8.54522 106.446 9.13849C106.748 9.73177 106.899 10.4228 106.899 11.2116C106.899 12.0005 106.748 12.6899 106.446 13.2798C106.148 13.8698 105.725 14.3288 105.179 14.657C104.632 14.9851 103.985 15.1491 103.24 15.1491ZM103.25 13.7074C103.654 13.7074 103.992 13.5964 104.264 13.3743C104.536 13.1489 104.738 12.8473 104.87 12.4695C105.006 12.0916 105.074 11.6707 105.074 11.2067C105.074 10.7393 105.006 10.3168 104.87 9.93892C104.738 9.55777 104.536 9.2545 104.264 9.02912C103.992 8.80374 103.654 8.69105 103.25 8.69105C102.835 8.69105 102.491 8.80374 102.215 9.02912C101.944 9.2545 101.74 9.55777 101.604 9.93892C101.471 10.3168 101.405 10.7393 101.405 11.2067C101.405 11.6707 101.471 12.0916 101.604 12.4695C101.74 12.8473 101.944 13.1489 102.215 13.3743C102.491 13.5964 102.835 13.7074 103.25 13.7074ZM109.783 15L107.626 7.36364H109.46L110.803 12.733H110.872L112.244 7.36364H114.059L115.431 12.7031H115.506L116.828 7.36364H118.668L116.505 15H114.631L113.199 9.83949H113.095L111.663 15H109.783ZM121.724 10.5256V15H119.924V7.36364H121.644V8.66122H121.734C121.91 8.23366 122.19 7.89394 122.574 7.64205C122.962 7.39015 123.441 7.2642 124.011 7.2642C124.538 7.2642 124.997 7.37689 125.388 7.60227C125.782 7.82765 126.087 8.15412 126.303 8.58168C126.522 9.00923 126.629 9.52794 126.626 10.1378V15H124.826V10.4162C124.826 9.90578 124.694 9.50639 124.429 9.21804C124.167 8.92969 123.804 8.78551 123.34 8.78551C123.025 8.78551 122.745 8.85511 122.5 8.99432C122.258 9.13021 122.067 9.32741 121.928 9.58594C121.792 9.84446 121.724 10.1577 121.724 10.5256ZM130.255 4.81818V15H128.456V4.81818H130.255ZM135.437 15.1491C134.691 15.1491 134.045 14.9851 133.498 14.657C132.951 14.3288 132.527 13.8698 132.225 13.2798C131.927 12.6899 131.778 12.0005 131.778 11.2116C131.778 10.4228 131.927 9.73177 132.225 9.13849C132.527 8.54522 132.951 8.08452 133.498 7.75639C134.045 7.42827 134.691 7.2642 135.437 7.2642C136.183 7.2642 136.829 7.42827 137.376 7.75639C137.923 8.08452 138.345 8.54522 138.644 9.13849C138.945 9.73177 139.096 10.4228 139.096 11.2116C139.096 12.0005 138.945 12.6899 138.644 13.2798C138.345 13.8698 137.923 14.3288 137.376 14.657C136.829 14.9851 136.183 15.1491 135.437 15.1491ZM135.447 13.7074C135.851 13.7074 136.189 13.5964 136.461 13.3743C136.733 13.1489 136.935 12.8473 137.068 12.4695C137.203 12.0916 137.271 11.6707 137.271 11.2067C137.271 10.7393 137.203 10.3168 137.068 9.93892C136.935 9.55777 136.733 9.2545 136.461 9.02912C136.189 8.80374 135.851 8.69105 135.447 8.69105C135.033 8.69105 134.688 8.80374 134.413 9.02912C134.141 9.2545 133.937 9.55777 133.801 9.93892C133.669 10.3168 133.602 10.7393 133.602 11.2067C133.602 11.6707 133.669 12.0916 133.801 12.4695C133.937 12.8473 134.141 13.1489 134.413 13.3743C134.688 13.5964 135.033 13.7074 135.447 13.7074ZM142.821 15.1541C142.337 15.1541 141.901 15.0679 141.513 14.8956C141.129 14.7199 140.824 14.4614 140.599 14.12C140.377 13.7786 140.266 13.3577 140.266 12.8572C140.266 12.4264 140.345 12.0701 140.504 11.7884C140.663 11.5066 140.88 11.2812 141.155 11.1122C141.431 10.9432 141.74 10.8156 142.085 10.7294C142.433 10.6399 142.793 10.5753 143.164 10.5355C143.611 10.4891 143.974 10.4477 144.253 10.4112C144.531 10.3714 144.733 10.3118 144.859 10.2322C144.989 10.1494 145.053 10.0218 145.053 9.84943V9.8196C145.053 9.44508 144.942 9.15507 144.72 8.94957C144.498 8.74408 144.178 8.64134 143.761 8.64134C143.32 8.64134 142.97 8.73745 142.712 8.92969C142.456 9.12192 142.284 9.34896 142.195 9.6108L140.514 9.37216C140.647 8.90814 140.865 8.52036 141.17 8.20881C141.475 7.89394 141.848 7.65862 142.289 7.50284C142.73 7.34375 143.217 7.2642 143.751 7.2642C144.119 7.2642 144.485 7.30729 144.849 7.39347C145.214 7.47964 145.547 7.62216 145.849 7.82102C146.15 8.01657 146.392 8.28338 146.575 8.62145C146.76 8.95952 146.853 9.3821 146.853 9.8892V15H145.123V13.951H145.063C144.954 14.1631 144.8 14.362 144.601 14.5476C144.405 14.7299 144.158 14.8774 143.86 14.9901C143.565 15.0994 143.219 15.1541 142.821 15.1541ZM143.288 13.8317C143.65 13.8317 143.963 13.7604 144.228 13.6179C144.493 13.4721 144.697 13.2798 144.839 13.0412C144.985 12.8026 145.058 12.5424 145.058 12.2607V11.3608C145.002 11.4072 144.906 11.4503 144.77 11.4901C144.637 11.5298 144.488 11.5646 144.322 11.5945C144.157 11.6243 143.993 11.6508 143.83 11.674C143.668 11.6972 143.527 11.7171 143.408 11.7337C143.139 11.7701 142.899 11.8298 142.687 11.9126C142.475 11.9955 142.307 12.1115 142.185 12.2607C142.062 12.4065 142.001 12.5954 142.001 12.8274C142.001 13.1589 142.122 13.4091 142.364 13.5781C142.606 13.7472 142.914 13.8317 143.288 13.8317ZM151.496 15.1342C150.896 15.1342 150.36 14.9801 149.886 14.6719C149.412 14.3636 149.037 13.9162 148.762 13.3295C148.487 12.7429 148.349 12.0303 148.349 11.1918C148.349 10.3433 148.489 9.62737 148.767 9.04403C149.049 8.45739 149.428 8.01491 149.905 7.71662C150.383 7.41501 150.915 7.2642 151.501 7.2642C151.949 7.2642 152.317 7.34044 152.605 7.4929C152.893 7.64205 153.122 7.82268 153.291 8.0348C153.46 8.24361 153.591 8.44081 153.684 8.62642H153.758V4.81818H155.563V15H153.793V13.7969H153.684C153.591 13.9825 153.457 14.1797 153.281 14.3885C153.106 14.594 152.874 14.7696 152.585 14.9155C152.297 15.0613 151.934 15.1342 151.496 15.1342ZM151.999 13.6577C152.38 13.6577 152.704 13.5549 152.973 13.3494C153.241 13.1406 153.445 12.8506 153.584 12.4794C153.724 12.1082 153.793 11.6757 153.793 11.1818C153.793 10.688 153.724 10.2588 153.584 9.89418C153.449 9.52959 153.246 9.24621 152.978 9.04403C152.713 8.84186 152.386 8.74077 151.999 8.74077C151.597 8.74077 151.263 8.84517 150.994 9.05398C150.726 9.26278 150.524 9.55114 150.388 9.91903C150.252 10.2869 150.184 10.7079 150.184 11.1818C150.184 11.6591 150.252 12.085 150.388 12.4595C150.527 12.8307 150.731 13.1241 150.999 13.3395C151.271 13.5516 151.604 13.6577 151.999 13.6577Z" fill="#4D4D4D"/>
<defs>
<clipPath id="clip0_2_2720">
<rect width="22" height="22" fill="white" transform="translate(64)"/>
</clipPath>
</defs>
</svg>
