<svg width="93" height="29" viewBox="0 0 93 29" fill="none" xmlns="http://www.w3.org/2000/svg">
<rect width="93" height="29" fill="white"/>
<path d="M1.51705 23V5.54545H8.40341C9.72159 5.54545 10.8466 5.78125 11.7784 6.25284C12.7159 6.71875 13.429 7.38068 13.9176 8.23864C14.4119 9.09091 14.6591 10.0937 14.6591 11.2472C14.6591 12.4062 14.4091 13.4034 13.9091 14.2386C13.4091 15.0682 12.6847 15.7045 11.7358 16.1477C10.7926 16.5909 9.65057 16.8125 8.30966 16.8125H3.69886V13.8466H7.71307C8.41761 13.8466 9.00284 13.75 9.46875 13.5568C9.93466 13.3636 10.2813 13.0739 10.5085 12.6875C10.7415 12.3011 10.858 11.821 10.858 11.2472C10.858 10.6676 10.7415 10.179 10.5085 9.78125C10.2813 9.38352 9.93182 9.08239 9.46023 8.87784C8.99432 8.66761 8.40625 8.5625 7.69602 8.5625H5.20739V23H1.51705ZM10.9432 15.0568L15.2812 23H11.2074L6.96307 15.0568H10.9432ZM22.9538 23.2557C21.6072 23.2557 20.4482 22.983 19.4766 22.4375C18.5107 21.8864 17.7663 21.108 17.2436 20.1023C16.7209 19.0909 16.4595 17.8949 16.4595 16.5142C16.4595 15.1676 16.7209 13.9858 17.2436 12.9688C17.7663 11.9517 18.5021 11.1591 19.451 10.5909C20.4055 10.0227 21.5249 9.73864 22.8089 9.73864C23.6726 9.73864 24.4766 9.87784 25.2209 10.1562C25.9709 10.429 26.6243 10.8409 27.1811 11.392C27.7436 11.9432 28.1811 12.6364 28.4936 13.4716C28.8061 14.3011 28.9624 15.2727 28.9624 16.3864V17.3835H17.9084V15.1335H25.5447C25.5447 14.6108 25.4311 14.1477 25.2038 13.7443C24.9766 13.3409 24.6612 13.0256 24.2578 12.7983C23.8601 12.5653 23.397 12.4489 22.8686 12.4489C22.3175 12.4489 21.8288 12.5767 21.4027 12.8324C20.9822 13.0824 20.6527 13.4205 20.4141 13.8466C20.1754 14.267 20.0533 14.7358 20.0476 15.2528V17.392C20.0476 18.0398 20.1669 18.5994 20.4055 19.071C20.6499 19.5426 20.9936 19.9062 21.4368 20.1619C21.88 20.4176 22.4055 20.5455 23.0135 20.5455C23.4169 20.5455 23.7862 20.4886 24.1214 20.375C24.4567 20.2614 24.7436 20.0909 24.9822 19.8636C25.2209 19.6364 25.4027 19.358 25.5277 19.0284L28.8857 19.25C28.7152 20.0568 28.3658 20.7614 27.8374 21.3636C27.3146 21.9602 26.6385 22.4261 25.8089 22.7614C24.9851 23.0909 24.0334 23.2557 22.9538 23.2557ZM31.3317 27.9091V9.90909H34.9112V12.108H35.0732C35.2322 11.7557 35.4624 11.3977 35.7635 11.0341C36.0703 10.6648 36.468 10.358 36.9567 10.1136C37.451 9.86364 38.0646 9.73864 38.7976 9.73864C39.7521 9.73864 40.6328 9.98864 41.4396 10.4886C42.2464 10.983 42.8913 11.7301 43.3743 12.7301C43.8572 13.7244 44.0987 14.9716 44.0987 16.4716C44.0987 17.9318 43.8629 19.1648 43.3913 20.1705C42.9254 21.1705 42.2891 21.929 41.4822 22.446C40.6811 22.9574 39.7834 23.2131 38.7891 23.2131C38.0845 23.2131 37.4851 23.0966 36.9908 22.8636C36.5021 22.6307 36.1016 22.3381 35.7891 21.9858C35.4766 21.6278 35.2379 21.267 35.0732 20.9034H34.9624V27.9091H31.3317ZM34.8857 16.4545C34.8857 17.233 34.9936 17.9119 35.2095 18.4915C35.4254 19.071 35.7379 19.5227 36.147 19.8466C36.5561 20.1648 37.0533 20.3239 37.6385 20.3239C38.2294 20.3239 38.7294 20.1619 39.1385 19.8381C39.5476 19.5085 39.8572 19.054 40.0675 18.4744C40.2834 17.8892 40.3913 17.2159 40.3913 16.4545C40.3913 15.6989 40.2862 15.0341 40.076 14.4602C39.8658 13.8864 39.5561 13.4375 39.147 13.1136C38.7379 12.7898 38.2351 12.6278 37.6385 12.6278C37.0476 12.6278 36.5476 12.7841 36.1385 13.0966C35.7351 13.4091 35.4254 13.8523 35.2095 14.4261C34.9936 15 34.8857 15.6761 34.8857 16.4545ZM52.4339 23.2557C51.1101 23.2557 49.9652 22.9744 48.9993 22.4119C48.0391 21.8437 47.2976 21.054 46.7749 20.0426C46.2521 19.0256 45.9908 17.8466 45.9908 16.5057C45.9908 15.1534 46.2521 13.9716 46.7749 12.9602C47.2976 11.9432 48.0391 11.1534 48.9993 10.5909C49.9652 10.0227 51.1101 9.73864 52.4339 9.73864C53.7578 9.73864 54.8999 10.0227 55.8601 10.5909C56.826 11.1534 57.5703 11.9432 58.093 12.9602C58.6158 13.9716 58.8771 15.1534 58.8771 16.5057C58.8771 17.8466 58.6158 19.0256 58.093 20.0426C57.5703 21.054 56.826 21.8437 55.8601 22.4119C54.8999 22.9744 53.7578 23.2557 52.4339 23.2557ZM52.451 20.4432C53.0533 20.4432 53.5561 20.2727 53.9595 19.9318C54.3629 19.5852 54.6669 19.1136 54.8714 18.517C55.0817 17.9205 55.1868 17.2415 55.1868 16.4801C55.1868 15.7188 55.0817 15.0398 54.8714 14.4432C54.6669 13.8466 54.3629 13.375 53.9595 13.0284C53.5561 12.6818 53.0533 12.5085 52.451 12.5085C51.843 12.5085 51.3317 12.6818 50.9169 13.0284C50.5078 13.375 50.1982 13.8466 49.9879 14.4432C49.7834 15.0398 49.6811 15.7188 49.6811 16.4801C49.6811 17.2415 49.7834 17.9205 49.9879 18.517C50.1982 19.1136 50.5078 19.5852 50.9169 19.9318C51.3317 20.2727 51.843 20.4432 52.451 20.4432ZM61.2379 23V9.90909H64.7578V12.1932H64.8942C65.1328 11.3807 65.5334 10.767 66.0959 10.3523C66.6584 9.93182 67.3061 9.72159 68.0391 9.72159C68.2209 9.72159 68.4169 9.73295 68.6271 9.75568C68.8374 9.77841 69.022 9.80966 69.1811 9.84943V13.071C69.0107 13.0199 68.7749 12.9744 68.4737 12.9347C68.1726 12.8949 67.897 12.875 67.647 12.875C67.1129 12.875 66.6357 12.9915 66.2152 13.2244C65.8004 13.4517 65.4709 13.7699 65.2266 14.179C64.9879 14.5881 64.8686 15.0597 64.8686 15.5938V23H61.2379ZM78.6776 9.90909V12.6364H70.794V9.90909H78.6776ZM72.5838 6.77273H76.2145V18.9773C76.2145 19.3125 76.2656 19.5739 76.3679 19.7614C76.4702 19.9432 76.6122 20.071 76.794 20.1449C76.9815 20.2187 77.1974 20.2557 77.4418 20.2557C77.6122 20.2557 77.7827 20.2415 77.9531 20.2131C78.1236 20.179 78.2543 20.1534 78.3452 20.1364L78.9162 22.8381C78.7344 22.8949 78.4787 22.9602 78.1491 23.0341C77.8196 23.1136 77.419 23.1619 76.9474 23.179C76.0724 23.2131 75.3054 23.0966 74.6463 22.8295C73.9929 22.5625 73.4844 22.1477 73.1207 21.5852C72.7571 21.0227 72.5781 20.3125 72.5838 19.4545V6.77273ZM91.7706 13.642L88.4467 13.8466C88.3899 13.5625 88.2678 13.3068 88.0803 13.0795C87.8928 12.8466 87.6456 12.6619 87.3388 12.5256C87.0376 12.3835 86.6768 12.3125 86.2564 12.3125C85.6939 12.3125 85.2195 12.4318 84.8331 12.6705C84.4467 12.9034 84.2536 13.2159 84.2536 13.608C84.2536 13.9205 84.3786 14.1847 84.6286 14.4006C84.8786 14.6165 85.3075 14.7898 85.9155 14.9205L88.2848 15.3977C89.5575 15.6591 90.5064 16.0795 91.1314 16.6591C91.7564 17.2386 92.0689 18 92.0689 18.9432C92.0689 19.8011 91.8161 20.554 91.3104 21.2017C90.8104 21.8494 90.1229 22.3551 89.2479 22.7188C88.3786 23.0767 87.3757 23.2557 86.2393 23.2557C84.5064 23.2557 83.1257 22.8949 82.0973 22.1733C81.0746 21.446 80.4751 20.4574 80.299 19.2074L83.87 19.0199C83.978 19.5483 84.2393 19.9517 84.6541 20.2301C85.0689 20.5028 85.6001 20.6392 86.2479 20.6392C86.8842 20.6392 87.3956 20.517 87.782 20.2727C88.174 20.0227 88.3729 19.7017 88.3786 19.3097C88.3729 18.9801 88.2337 18.7102 87.9609 18.5C87.6882 18.2841 87.2678 18.1193 86.6996 18.0057L84.4325 17.554C83.1541 17.2983 82.2024 16.8551 81.5774 16.2244C80.9581 15.5937 80.6484 14.7898 80.6484 13.8125C80.6484 12.9716 80.8757 12.2472 81.3303 11.6392C81.7905 11.0312 82.4354 10.5625 83.2649 10.233C84.1001 9.90341 85.0774 9.73864 86.1967 9.73864C87.8501 9.73864 89.1513 10.0881 90.1001 10.7869C91.0547 11.4858 91.6115 12.4375 91.7706 13.642Z" fill="black"/>
</svg>
